<svg viewBox="-30 -24 660 456" xmlns="http://www.w3.org/2000/svg">
  <defs>
    <filter id="wave-FM" x="-20%" y="-20%" width="140%" height="140%">
      <feTurbulence type="turbulence" numOctaves="2" seed="147" result="turb">
        <animate attributeName="baseFrequency" dur="4.5s" repeatCount="indefinite"
          values="0.010 0.045;0.016 0.055;0.010 0.045"/>
      </feTurbulence>
      <feDisplacementMap in="SourceGraphic" in2="turb" scale="16" xChannelSelector="R" yChannelSelector="G"/>
    </filter>
    <linearGradient id="shine-FM" x1="0" y1="0" x2="1" y2="0">
      <stop offset="0%" stop-color="#ffffff" stop-opacity="0"/>
      <stop offset="45%" stop-color="#ffffff" stop-opacity="0.22"/>
      <stop offset="55%" stop-color="#ffffff" stop-opacity="0.22"/>
      <stop offset="100%" stop-color="#ffffff" stop-opacity="0"/>
    </linearGradient>
    <linearGradient id="pole-FM" x1="0" y1="0" x2="1" y2="0">
      <stop offset="0%" stop-color="#8a8f98"/>
      <stop offset="50%" stop-color="#e5e8ec"/>
      <stop offset="100%" stop-color="#8a8f98"/>
    </linearGradient>
    <clipPath id="clip-FM"><rect x="0" y="0" width="600" height="400"/></clipPath>
  </defs>

  <rect x="-14" y="-24" width="14" height="456" fill="url(#pole-FM)"/>
  <circle cx="-7" cy="-24" r="11" fill="#d9b64a"/>

  <g filter="url(#wave-FM)">
    <g clip-path="url(#clip-FM)">
      <rect width="600" height="400" fill="#75B2DD"/><polygon points="240.0,128.0 247.5,149.6 270.4,150.1 252.2,164.0 258.8,185.9 240.0,172.8 221.2,185.9 227.8,164.0 209.6,150.1 232.5,149.6" fill="#fff"/><polygon points="360.0,128.0 367.5,149.6 390.4,150.1 372.2,164.0 378.8,185.9 360.0,172.8 341.2,185.9 347.8,164.0 329.6,150.1 352.5,149.6" fill="#fff"/><polygon points="240.0,208.0 247.5,229.6 270.4,230.1 252.2,244.0 258.8,265.9 240.0,252.8 221.2,265.9 227.8,244.0 209.6,230.1 232.5,229.6" fill="#fff"/><polygon points="360.0,208.0 367.5,229.6 390.4,230.1 372.2,244.0 378.8,265.9 360.0,252.8 341.2,265.9 347.8,244.0 329.6,230.1 352.5,229.6" fill="#fff"/>
      <rect x="-600" y="0" width="1800" height="400" fill="url(#shine-FM)">
        <animateTransform attributeName="transform" type="translate" dur="5.5s" repeatCount="indefinite"
          values="-600 0; 600 0; -600 0"/>
      </rect>
    </g>
  </g>
</svg>