<svg viewBox="-30 -24 660 456" xmlns="http://www.w3.org/2000/svg">
  <defs>
    <filter id="wave-TM" x="-20%" y="-20%" width="140%" height="140%">
      <feTurbulence type="turbulence" numOctaves="2" seed="161" result="turb">
        <animate attributeName="baseFrequency" dur="4.5s" repeatCount="indefinite"
          values="0.010 0.045;0.016 0.055;0.010 0.045"/>
      </feTurbulence>
      <feDisplacementMap in="SourceGraphic" in2="turb" scale="16" xChannelSelector="R" yChannelSelector="G"/>
    </filter>
    <linearGradient id="shine-TM" x1="0" y1="0" x2="1" y2="0">
      <stop offset="0%" stop-color="#ffffff" stop-opacity="0"/>
      <stop offset="45%" stop-color="#ffffff" stop-opacity="0.22"/>
      <stop offset="55%" stop-color="#ffffff" stop-opacity="0.22"/>
      <stop offset="100%" stop-color="#ffffff" stop-opacity="0"/>
    </linearGradient>
    <linearGradient id="pole-TM" x1="0" y1="0" x2="1" y2="0">
      <stop offset="0%" stop-color="#8a8f98"/>
      <stop offset="50%" stop-color="#e5e8ec"/>
      <stop offset="100%" stop-color="#8a8f98"/>
    </linearGradient>
    <clipPath id="clip-TM"><rect x="0" y="0" width="600" height="400"/></clipPath>
  </defs>

  <rect x="-14" y="-24" width="14" height="456" fill="url(#pole-TM)"/>
  <circle cx="-7" cy="-24" r="11" fill="#d9b64a"/>

  <g filter="url(#wave-TM)">
    <g clip-path="url(#clip-TM)">
      <rect width="600" height="400" fill="#1A7A3D"/><rect width="132.0" height="400" fill="#7B2D26"/><circle cx="240.0" cy="200.0" r="64.0" fill="#fff"/><circle cx="270.0" cy="200.0" r="54.0" fill="#1A7A3D"/><polygon points="330.0,116.0 332.8,124.1 341.4,124.3 334.6,129.5 337.1,137.7 330.0,132.8 322.9,137.7 325.4,129.5 318.6,124.3 327.2,124.1" fill="#fff"/><polygon points="366.0,116.0 368.8,124.1 377.4,124.3 370.6,129.5 373.1,137.7 366.0,132.8 358.9,137.7 361.4,129.5 354.6,124.3 363.2,124.1" fill="#fff"/><polygon points="402.0,116.0 404.8,124.1 413.4,124.3 406.6,129.5 409.1,137.7 402.0,132.8 394.9,137.7 397.4,129.5 390.6,124.3 399.2,124.1" fill="#fff"/><polygon points="438.0,116.0 440.8,124.1 449.4,124.3 442.6,129.5 445.1,137.7 438.0,132.8 430.9,137.7 433.4,129.5 426.6,124.3 435.2,124.1" fill="#fff"/><polygon points="474.0,116.0 476.8,124.1 485.4,124.3 478.6,129.5 481.1,137.7 474.0,132.8 466.9,137.7 469.4,129.5 462.6,124.3 471.2,124.1" fill="#fff"/>
      <rect x="-600" y="0" width="1800" height="400" fill="url(#shine-TM)">
        <animateTransform attributeName="transform" type="translate" dur="5.5s" repeatCount="indefinite"
          values="-600 0; 600 0; -600 0"/>
      </rect>
    </g>
  </g>
</svg>