<svg viewBox="-30 -24 660 456" xmlns="http://www.w3.org/2000/svg">
  <defs>
    <filter id="wave-WS" x="-20%" y="-20%" width="140%" height="140%">
      <feTurbulence type="turbulence" numOctaves="2" seed="170" result="turb">
        <animate attributeName="baseFrequency" dur="4.5s" repeatCount="indefinite"
          values="0.010 0.045;0.016 0.055;0.010 0.045"/>
      </feTurbulence>
      <feDisplacementMap in="SourceGraphic" in2="turb" scale="16" xChannelSelector="R" yChannelSelector="G"/>
    </filter>
    <linearGradient id="shine-WS" x1="0" y1="0" x2="1" y2="0">
      <stop offset="0%" stop-color="#ffffff" stop-opacity="0"/>
      <stop offset="45%" stop-color="#ffffff" stop-opacity="0.22"/>
      <stop offset="55%" stop-color="#ffffff" stop-opacity="0.22"/>
      <stop offset="100%" stop-color="#ffffff" stop-opacity="0"/>
    </linearGradient>
    <linearGradient id="pole-WS" x1="0" y1="0" x2="1" y2="0">
      <stop offset="0%" stop-color="#8a8f98"/>
      <stop offset="50%" stop-color="#e5e8ec"/>
      <stop offset="100%" stop-color="#8a8f98"/>
    </linearGradient>
    <clipPath id="clip-WS"><rect x="0" y="0" width="600" height="400"/></clipPath>
  </defs>

  <rect x="-14" y="-24" width="14" height="456" fill="url(#pole-WS)"/>
  <circle cx="-7" cy="-24" r="11" fill="#d9b64a"/>

  <g filter="url(#wave-WS)">
    <g clip-path="url(#clip-WS)">
      <rect width="600" height="400" fill="#CE1126"/><rect width="300.0" height="200.0" fill="#002B7F"/><polygon points="150.0,30.0 156.9,46.5 174.7,48.0 161.1,59.6 165.3,77.0 150.0,67.7 134.7,77.0 138.9,59.6 125.3,48.0 143.1,46.5" fill="#fff"/><polygon points="96.0,80.0 101.3,92.7 115.0,93.8 104.6,102.8 107.8,116.2 96.0,109.0 84.2,116.2 87.4,102.8 77.0,93.8 90.7,92.7" fill="#fff"/><polygon points="204.0,66.0 208.8,77.4 221.1,78.4 211.7,86.5 214.6,98.6 204.0,92.1 193.4,98.6 196.3,86.5 186.9,78.4 199.2,77.4" fill="#fff"/><polygon points="150.0,118.0 154.8,129.4 167.1,130.4 157.7,138.5 160.6,150.6 150.0,144.1 139.4,150.6 142.3,138.5 132.9,130.4 145.2,129.4" fill="#fff"/><polygon points="198.0,118.0 201.7,126.9 211.3,127.7 204.0,133.9 206.2,143.3 198.0,138.3 189.8,143.3 192.0,133.9 184.7,127.7 194.3,126.9" fill="#fff"/>
      <rect x="-600" y="0" width="1800" height="400" fill="url(#shine-WS)">
        <animateTransform attributeName="transform" type="translate" dur="5.5s" repeatCount="indefinite"
          values="-600 0; 600 0; -600 0"/>
      </rect>
    </g>
  </g>
</svg>